HIERARCHY
ROOT Hips
{
	OFFSET -0.001795 -0.223333 0.028219
	CHANNELS 6 Xposition Yposition Zposition Zrotation Yrotation Xrotation 
	JOINT LeftUpLeg
	{
		OFFSET 0.069520 -0.091406 -0.006815
		CHANNELS 3 Zrotation Yrotation Xrotation
		JOINT LeftLeg
		{
			OFFSET 0.034277 -0.375199 -0.004496
			CHANNELS 3 Zrotation Yrotation Xrotation
			JOINT LeftFoot
			{
				OFFSET -0.013596 -0.397961 -0.043693
				CHANNELS 3 Zrotation Yrotation Xrotation
				JOINT LeftToe
				{
					OFFSET 0.026358 -0.055791 0.119288
					CHANNELS 3 Zrotation Yrotation Xrotation
					End Site
					{
						OFFSET 0.000000 0.000000 0.000000
					}
				}
			}
		}
	}
	JOINT RightUpLeg
	{
		OFFSET -0.067670 -0.090522 -0.004320
		CHANNELS 3 Zrotation Yrotation Xrotation
		JOINT RightLeg
		{
			OFFSET -0.038290 -0.382569 -0.008850
			CHANNELS 3 Zrotation Yrotation Xrotation
			JOINT RightFoot
			{
				OFFSET 0.015774 -0.398415 -0.042312
				CHANNELS 3 Zrotation Yrotation Xrotation
				JOINT RightToe
				{
					OFFSET -0.025372 -0.048144 0.123348
					CHANNELS 3 Zrotation Yrotation Xrotation
					End Site
					{
						OFFSET 0.000000 0.000000 0.000000
					}
				}
			}
		}
	}
	JOINT Spine
	{
		OFFSET -0.002533 0.108963 -0.026696
		CHANNELS 3 Zrotation Yrotation Xrotation
		JOINT Spine1
		{
			OFFSET 0.005487 0.135180 0.001092
			CHANNELS 3 Zrotation Yrotation Xrotation
			JOINT Spine2
			{
				OFFSET 0.001457 0.052922 0.025425
				CHANNELS 3 Zrotation Yrotation Xrotation
				JOINT Neck
				{
					OFFSET -0.002778 0.213870 -0.042857
					CHANNELS 3 Zrotation Yrotation Xrotation
					JOINT Head
					{
						OFFSET 0.005152 0.064970 0.051349
						CHANNELS 3 Zrotation Yrotation Xrotation
						End Site
						{
							OFFSET 0.000000 0.000000 0.000000
						}
					}
				}
				JOINT LeftShoulder
				{
					OFFSET 0.078845 0.121749 -0.034090
					CHANNELS 3 Zrotation Yrotation Xrotation
					JOINT LeftArm
					{
						OFFSET 0.090977 0.030469 -0.008868
						CHANNELS 3 Zrotation Yrotation Xrotation
						JOINT LeftForeArm
						{
							OFFSET 0.259612 -0.012772 -0.027456
							CHANNELS 3 Zrotation Yrotation Xrotation
							JOINT LeftHand
							{
								OFFSET 0.249234 0.008986 -0.001171
								CHANNELS 3 Zrotation Yrotation Xrotation
								End Site
								{
									OFFSET 0.000000 0.000000 0.000000
								}
							}
						}
					}
				}
				JOINT RightShoulder
				{
					OFFSET -0.081759 0.118833 -0.038615
					CHANNELS 3 Zrotation Yrotation Xrotation
					JOINT RightArm
					{
						OFFSET -0.096012 0.032551 -0.009143
						CHANNELS 3 Zrotation Yrotation Xrotation
						JOINT RightForeArm
						{
							OFFSET -0.253742 -0.013329 -0.021401
							CHANNELS 3 Zrotation Yrotation Xrotation
							JOINT RightHand
							{
								OFFSET -0.255298 0.007772 -0.005559
								CHANNELS 3 Zrotation Yrotation Xrotation
								End Site
								{
									OFFSET 0.000000 0.000000 0.000000
								}
							}
						}
					}
				}
			}
		}
	}
}
MOTION
Frames: 18
Frame Time: 0.050000
0.000000 0.942379 0.000000 -0.115291 1.169750 4.889146 1.406894 -0.103115 -0.849316 -3.110940 0.356907 -4.651590 6.175464 14.041899 7.742141 0.000000 0.000000 0.000000 -1.685180 0.217942 -1.870076 1.442698 -0.128549 0.955224 -6.845061 -17.303959 5.528660 0.000000 0.000000 0.000000 3.727006 0.245230 -4.694705 -1.175437 0.655981 -5.723053 -2.679124 3.384557 12.894773 6.241798 -1.928452 -18.958243 0.000000 0.000000 0.000000 -7.319045 -1.419528 -0.384767 -33.059023 -7.729615 -2.352340 24.937680 -12.548632 -2.419174 0.000000 0.000000 0.000000 7.818359 -3.043690 -1.475350 35.241677 9.573888 -1.599387 -20.398814 15.992817 -1.531520 0.000000 0.000000 0.000000 
0.003726 0.940856 0.003085 -0.926719 0.506410 5.152353 2.038621 -0.072545 -0.266341 -3.258803 0.377680 -5.939953 6.916337 15.273151 7.817325 0.000000 0.000000 0.000000 -1.147699 0.243183 -2.232828 0.973068 -0.076866 0.819495 -7.229152 -18.121239 5.779519 0.000000 0.000000 0.000000 4.401990 0.276197 -4.958110 -0.940997 0.534692 -4.945593 -2.691131 5.267054 11.948464 6.535058 -1.792841 -19.580560 0.000000 0.000000 0.000000 -6.895566 -0.933445 -0.686063 -33.936287 -7.742642 -2.295484 22.891023 -12.384452 -2.263482 0.000000 0.000000 0.000000 8.601887 -5.383705 -2.430831 36.935802 9.534330 -1.611402 -21.347685 17.342977 -1.687544 0.000000 0.000000 0.000000 
0.008334 0.939503 0.006191 -1.130347 -0.464009 5.335921 1.821699 -0.021913 0.315933 -2.956239 0.370270 -6.099359 7.964610 17.012000 7.907058 0.000000 0.000000 0.000000 -1.680672 0.297037 -2.738268 1.223026 -0.079908 1.574717 -6.269702 -16.117508 5.350880 0.000000 0.000000 0.000000 5.313686 0.319729 -5.240444 -1.953414 0.952819 -6.026797 -2.722194 5.667827 13.556471 6.949545 -2.123386 -19.399683 0.000000 0.000000 0.000000 -6.928304 -1.040881 -0.609999 -35.412144 -5.417635 -3.121552 24.039248 -13.127152 -2.509296 0.000000 0.000000 0.000000 10.165938 -4.739336 -2.225655 37.091096 9.774148 -1.683100 -22.389463 17.599862 -1.849916 0.000000 0.000000 0.000000 
0.013592 0.938413 0.009871 -1.404310 -0.654623 4.824691 1.425463 0.023080 0.717164 -3.429317 0.396136 -5.511994 8.501915 17.844954 6.486561 0.000000 0.000000 0.000000 -1.406311 0.304621 -2.886251 1.047242 0.003772 3.606079 -6.336808 -16.239373 5.139586 0.000000 0.000000 0.000000 4.848872 0.313784 -5.153508 -1.720151 0.850994 -5.260650 -2.448372 5.815965 13.346587 6.335429 -1.733740 -19.443730 0.000000 0.000000 0.000000 -7.622316 0.053951 -1.161544 -38.069139 -4.624312 -3.574702 25.423393 -13.914218 -2.838490 0.000000 0.000000 0.000000 11.122076 -5.540137 -2.660893 39.158685 9.736749 -1.704538 -24.332168 18.992210 -2.269415 0.000000 0.000000 0.000000 
0.019772 0.937910 0.013692 -1.566713 -0.830681 4.556952 1.069211 0.082132 1.293282 -3.377720 0.395848 -5.723608 8.357593 17.567786 5.908252 0.000000 0.000000 0.000000 -1.818319 0.312138 -2.930637 0.986163 0.042648 4.545550 -6.173799 -15.882519 4.965310 0.000000 0.000000 0.000000 4.605044 0.267669 -4.586829 -1.240955 0.653392 -5.719606 -2.884321 6.050699 13.068020 6.852960 -2.023700 -19.380149 0.000000 0.000000 0.000000 -8.933491 0.431061 -1.553844 -40.159434 -3.377129 -4.121599 25.905962 -15.350977 -3.206320 0.000000 0.000000 0.000000 12.832590 -6.268181 -3.103334 41.637941 9.295521 -1.894857 -26.515010 21.476535 -2.947079 0.000000 0.000000 0.000000 
0.026710 0.936468 0.017388 -1.836688 -0.211179 4.491550 0.752723 0.103928 1.440924 -3.164587 0.375891 -5.465103 8.117466 17.051404 4.467319 0.000000 0.000000 0.000000 -2.107193 0.366138 -3.569199 1.046782 0.087187 6.400110 -6.347887 -16.215426 4.640721 0.000000 0.000000 0.000000 4.252808 0.242165 -4.371070 -0.999694 0.553866 -5.095781 -2.744289 4.803714 12.357559 6.966116 -2.127125 -19.808513 0.000000 0.000000 0.000000 -10.334418 1.589195 -2.181058 -43.781790 -2.389897 -4.816618 24.856743 -17.243049 -3.323186 0.000000 0.000000 0.000000 14.397885 -6.834475 -3.668957 46.338267 9.391557 -1.821131 -28.821589 23.400209 -3.735587 0.000000 0.000000 0.000000 
0.033925 0.936115 0.020350 -2.020351 -0.165315 4.181622 0.410633 0.117478 1.452737 -3.034343 0.363531 -4.874351 7.608409 16.115996 4.237071 0.000000 0.000000 0.000000 -2.629449 0.445036 -4.594330 1.793654 0.028119 8.965598 -6.658627 -16.854415 4.299562 0.000000 0.000000 0.000000 4.116950 0.170870 -3.420275 -0.641683 0.410587 -5.415364 -2.967233 4.578405 11.991096 7.136933 -2.243297 -19.803107 0.000000 0.000000 0.000000 -12.944521 0.951101 -2.312272 -47.028576 -0.728099 -5.757311 22.622703 -19.393787 -3.301691 0.000000 0.000000 0.000000 16.951414 -7.521119 -4.314053 51.095500 7.858743 -2.484604 -28.474798 27.733649 -4.550260 0.000000 0.000000 0.000000 
0.041112 0.935124 0.022440 -2.476834 0.162274 3.726915 0.366663 0.095928 1.191452 -2.770199 0.335556 -3.980463 7.392464 15.606007 3.134636 0.000000 0.000000 0.000000 -2.918614 0.564573 -6.276411 2.517664 -0.040883 13.166535 -6.719057 -16.955127 3.840855 0.000000 0.000000 0.000000 4.176640 0.111068 -2.575270 -0.631525 0.398405 -4.778533 -2.994771 4.031333 12.033960 7.898476 -2.547750 -21.019514 0.000000 0.000000 0.000000 -15.217723 0.619979 -2.460773 -50.766922 -0.721365 -6.256878 19.551623 -20.922006 -2.921927 0.000000 0.000000 0.000000 19.753450 -7.821889 -4.864195 56.275392 6.783635 -3.119528 -27.142098 29.949802 -4.691438 0.000000 0.000000 0.000000 
0.047565 0.934464 0.023765 -2.913597 0.904553 3.029493 0.458163 0.085578 1.110760 -2.942530 0.335425 -2.910356 7.020402 14.833972 2.641362 0.000000 0.000000 0.000000 -2.576721 0.674321 -7.698275 3.089528 -0.152669 17.791837 -7.598375 -18.849121 3.844275 0.000000 0.000000 0.000000 3.944975 0.023541 -1.314749 -0.230742 0.231419 -4.478918 -3.359897 3.916293 11.821910 8.786626 -2.939743 -21.481990 0.000000 0.000000 0.000000 -16.977633 -1.157951 -1.940945 -54.985055 -1.434472 -6.474870 15.646049 -20.645541 -2.163555 0.000000 0.000000 0.000000 23.295910 -8.204130 -5.407821 60.623446 5.302463 -4.072520 -22.584068 30.272740 -3.607349 0.000000 0.000000 0.000000 
0.053032 0.933085 0.025121 -3.418642 1.375858 2.233138 0.911213 0.097471 1.429763 -2.875833 0.322105 -2.258484 7.304265 15.231811 1.784857 0.000000 0.000000 0.000000 -1.944768 0.924634 -10.526189 2.905923 -0.081326 24.338576 -7.664388 -18.977558 3.290205 0.000000 0.000000 0.000000 4.001699 -0.035242 -0.410984 -0.375444 0.281377 -3.761351 -3.177299 3.285082 12.494936 9.906950 -3.359025 -23.197939 0.000000 0.000000 0.000000 -18.309068 -1.900587 -1.641181 -58.723498 -2.737977 -6.403220 10.643296 -20.330600 -1.175347 0.000000 0.000000 0.000000 25.257149 -8.301955 -5.804446 65.980495 4.336146 -4.907150 -18.145007 30.149857 -2.551060 0.000000 0.000000 0.000000 
0.057304 0.931903 0.026861 -3.731679 1.794739 1.421667 1.208990 0.122227 1.866544 -3.047967 0.329114 -1.441486 6.773760 14.063954 0.907746 0.000000 0.000000 0.000000 -1.156079 1.256836 -13.794000 2.014228 0.258632 31.082363 -8.241976 -20.181075 4.367090 0.000000 0.000000 0.000000 3.684666 -0.126539 1.026260 -0.184743 0.196623 -3.512785 -3.424485 2.559620 12.367713 10.431929 -3.713583 -23.203702 0.000000 0.000000 0.000000 -18.842730 -3.195169 -0.923685 -61.241320 -3.249710 -6.445086 6.737704 -20.779685 -0.465146 0.000000 0.000000 0.000000 26.707980 -7.574971 -5.671376 69.331949 2.878412 -5.962756 -14.847849 30.407032 -1.846930 0.000000 0.000000 0.000000 
0.060235 0.930961 0.029272 -4.140456 2.355956 0.678489 1.611925 0.143196 2.358135 -2.829165 0.294564 -0.206862 7.005487 14.231307 -0.546950 0.000000 0.000000 0.000000 -0.373863 1.611046 -16.893924 1.949028 0.248267 36.105796 -8.655701 -21.029436 4.099428 0.000000 0.000000 0.000000 3.517910 -0.202532 2.243529 -0.052684 0.158015 -3.901255 -3.408199 1.979711 13.598206 10.722930 -3.713887 -24.560192 0.000000 0.000000 0.000000 -19.199272 -4.069538 -0.388366 -62.093729 -4.591276 -5.962889 2.417128 -20.130029 0.332985 0.000000 0.000000 0.000000 28.046400 -7.014724 -5.520710 71.948995 2.656604 -6.427562 -12.758836 30.146444 -1.309294 0.000000 0.000000 0.000000 
0.061745 0.930474 0.032571 -4.409641 3.368984 -0.530575 2.202356 0.177514 3.259858 -3.433055 0.346421 0.199836 7.097208 14.269080 -0.856826 0.000000 0.000000 0.000000 0.554461 1.894719 -18.799323 1.998951 0.047569 39.860328 -8.808396 -21.238658 5.009254 0.000000 0.000000 0.000000 3.115653 -0.317901 4.232113 0.605074 -0.102195 -4.269767 -3.817022 1.590611 14.341493 11.015727 -3.621191 -25.976256 0.000000 0.000000 0.000000 -19.634919 -5.232022 0.143030 -60.956609 -5.749425 -5.300199 -0.146953 -21.480299 0.824072 0.000000 0.000000 0.000000 28.721581 -6.847548 -5.365190 72.840288 2.408966 -6.750807 -10.654510 30.529067 -0.769500 0.000000 0.000000 0.000000 
0.062645 0.931098 0.037564 -5.172346 3.384084 -1.361872 2.470867 0.200056 3.772083 -3.542617 0.353292 1.222699 7.607823 15.141420 -1.592489 0.000000 0.000000 0.000000 1.137639 2.211596 -21.074700 2.610758 -0.277424 40.664496 -8.199704 -19.943736 4.884227 0.000000 0.000000 0.000000 3.628312 -0.436250 5.588639 0.740262 -0.190815 -3.566348 -3.915740 1.726673 14.163550 10.823180 -3.250224 -27.257752 0.000000 0.000000 0.000000 -20.517719 -6.010165 0.414385 -59.444382 -6.474134 -4.726781 -3.185575 -22.758361 1.454019 0.000000 0.000000 0.000000 28.028656 -6.633899 -5.068682 73.942863 1.964739 -7.061400 -7.103555 31.778784 0.103152 0.000000 0.000000 0.000000 
0.062860 0.931196 0.044525 -5.439246 3.390492 -1.433451 2.546771 0.181168 3.532800 -3.419266 0.332556 2.280163 7.964792 15.827303 -1.756755 0.000000 0.000000 0.000000 1.524350 2.406474 -22.319759 3.357605 -0.575207 36.447108 -8.464269 -20.487119 4.599766 0.000000 0.000000 0.000000 3.737775 -0.513584 6.494268 0.864525 -0.241851 -3.657449 -3.546951 1.533374 14.308976 9.770939 -2.548763 -28.370007 0.000000 0.000000 0.000000 -21.877040 -6.203826 0.479010 -58.236983 -7.153683 -4.266483 -4.801222 -25.147765 1.979558 0.000000 0.000000 0.000000 25.655439 -6.354511 -4.677163 75.069197 1.052971 -7.673950 -4.036601 32.613197 0.891883 0.000000 0.000000 0.000000 
0.062419 0.930944 0.053105 -5.347849 3.133726 -0.945524 2.376020 0.197945 3.664243 -3.334769 0.328347 1.732089 8.172673 16.262845 -1.847071 0.000000 0.000000 0.000000 1.652054 2.526571 -23.171665 3.772508 -0.600247 29.829196 -7.951570 -19.441745 3.740614 0.000000 0.000000 0.000000 3.610184 -0.566945 7.213945 0.832733 -0.210149 -4.131084 -3.549990 1.265530 14.361145 9.609616 -2.513839 -28.443015 0.000000 0.000000 0.000000 -22.016535 -6.798441 0.948674 -58.188896 -8.777252 -3.487495 -5.153687 -26.798359 2.228895 0.000000 0.000000 0.000000 24.772813 -5.201845 -3.993058 74.420825 1.820954 -7.125808 -1.989409 33.153193 1.415466 0.000000 0.000000 0.000000 
0.061036 0.930384 0.062930 -5.039484 2.325246 -0.036348 1.969704 0.197728 3.316802 -2.970632 0.294269 1.466018 7.989163 15.926409 -2.314759 0.000000 0.000000 0.000000 1.914115 2.691428 -23.958061 3.016896 -0.197825 22.155934 -7.501749 -18.527408 4.902017 0.000000 0.000000 0.000000 3.842848 -0.582339 7.101742 0.695767 -0.190859 -3.395606 -3.981442 2.292263 13.391410 9.765681 -2.668203 -27.202325 0.000000 0.000000 0.000000 -21.572797 -7.843403 1.339215 -58.206971 -8.964318 -3.256772 -6.478387 -29.936899 2.785863 0.000000 0.000000 0.000000 25.313924 -4.357596 -3.365161 73.174408 2.795860 -6.306433 -2.267384 33.232164 1.352267 0.000000 0.000000 0.000000 
0.058878 0.928673 0.073956 -4.482243 2.444579 0.712329 1.164456 0.244638 3.459725 -2.355867 0.226531 1.167477 7.730777 15.391651 -2.323565 0.000000 0.000000 0.000000 1.987643 2.735126 -24.320523 2.674822 -0.124548 16.117775 -7.011329 -17.532465 5.871020 0.000000 0.000000 0.000000 3.954248 -0.657983 7.824927 -0.003726 0.116523 -3.284474 -4.033759 1.384292 13.347507 9.471388 -2.583642 -27.496102 0.000000 0.000000 0.000000 -22.566210 -8.764420 2.095429 -57.660875 -10.916379 -2.280499 -4.963123 -32.493573 2.679854 0.000000 0.000000 0.000000 25.512368 -1.929418 -2.151705 72.181215 4.762231 -5.029376 -3.680036 34.251274 0.904164 0.000000 0.000000 0.000000 
